<svg id="Capa_1" data-name="Capa 1" xmlns="http://www.w3.org/2000/svg" viewBox="0 0 500 500"><defs><style>.cls-1{fill:#1c1c1c;}.cls-2{fill:#35cae7;}.cls-3{fill:#c7c7c7;}.cls-4{fill:#edde13;}.cls-5{fill:#165762;}.cls-6{fill:#29808e;}</style></defs><title>Mesa de trabajo 1</title><path class="cls-1" d="M501.67,391.67H1.67v-280h500ZM309.14,276c.89-6.89,3.34-12,10.92-14.49,4.44-1.49,5.59-7.75,4.6-11.9-1.06-4.39-5.79-2.59-9.31-2.07A347.84,347.84,0,0,0,281,254.22c-4.6,1.18-10.08-1.25-14.58,3.9,4.37,2.32,8.52,4.79,12.89,6.77s6.64,4.71,4.58,9.62c-4.65,5.68-5,12.09-3.62,19.25h29.15c2.18,0,5.1.19,5.24-2.55C314.92,285.53,317.53,278.67,309.14,276Zm-179.2,74.1c-2.1-2.43-4.86-2-7.6-1.79-5.06.37-9.56.33-9-7,.18-2.33-2.08-4.47-5-4.63-9.17-.49-18.27-1.46-27.37-2.8-4.65-.69-7.46,1.43-8.16,7.5-1.16,10.08,4.66,19.34,1.56,29.59,11.15,1.69,20.92-2.59,31.06-3.65,5.82-.61,9.36-2.27,8.49-8.51,5.87-1.49,12.52,3.22,16.61-3.68a1.39,1.39,0,0,0,1.26-.43c16.36.1,32.72.39,49.07.25,11.09-.1,20.46-8.07,20.61-18.69.49-33.82.42-67.65.29-101.48,0-6.2-2.92-10.19-10.33-9.85-4.6.21-9.82,1.43-14.12-2.75,8.87-9.23,18.9-16.82,29.28-24,10.83-7.5,20.78-15.56,17.51-31a1.68,1.68,0,0,0,.13-2.57q0-6.22,0-12.44l.84-12c14.49-4.9,19.71-2.43,19.94,9.21.08,4.48-1.48,9.75,4.41,12.23s9.15-2.24,12.64-5c8.79-7.07,16.92-15,25.66-22.1,9.1-7.45,11.69-7.3,21,.21,14.46,11.72,28.17,24.5,43.4,35.1,18,12.51,35,26.22,52,39.91,5.29,4.25,11.94,7.94,16.39,15-3.07.17-4.69.31-6.32.33-20.12.31-21.39,1.6-21.38,21.92,0,28.32.07,56.64,0,85,0,11.56-5.31,17.54-16.25,17.69q-30.4.4-60.81-.09c-9.66-.16-15-6.31-15.42-16-.17-4.4.83-8.9-1-13.18,3.93-3,4.87-6.93,3.82-12.26-3.78.41-7.55-.61-11.7,1.48,2.28,3.16-2.94,9.56,5.13,9.87-3.8,4.67-1.67,10.14-1.72,15.17-.11,11.87,7.58,20.18,19.3,20.36,21.66.32,43.33.16,65-.14,8.43-.12,18.91-9.42,18.86-17.4-.19-32.38,2-64.8-1.08-97.16-.52-5.45,1.62-9.18,7.46-9.66,4.15-.34,8.33-.12,12.49-.31,3.36-.15,6.66-.44,8.24-4.31s-.65-6.59-3.06-8.72c-5.81-5.13-11.89-10-18-14.77q-47.13-37-94.35-73.85c-9.26-7.21-16.29-6.66-24.94,1.07q-10.56,9.42-21.37,18.57c-3.46,2.93-6.54,6.65-11.55,7.36-2.24-3.78-1-7.45-1.16-10.93-.28-5.87-2.12-11-8.61-11.28-19.49-.72-24.45-2.32-23.5,19.6a23.14,23.14,0,0,0,0,2.5c2.77,18.3-3.1,31.84-19.85,41.39-9.75,5.56-17.94,13.9-26.66,21.2-2.32,1.94-4.28,4.67-2.92,8.05s4.34,4.08,7.52,4.22q6.24.3,12.49.36c4.65.06,7.31,2,7.27,7-.28,32.49-.38,65-.9,97.47-.12,7.25-4,12.49-11.77,13.78-14.5-1.36-29-.28-43.54-.45C136.74,348.37,133,347.47,129.94,350.1ZM325.65,213.45c-.35-7.94-5.48-7.38-10.15-6.71-14.4,2.06-28.75,4.46-43.15,6.59-5,.74-6.6,3.18-4.91,8.89A474.32,474.32,0,0,0,325.65,213.45Zm-59.95,14.6c.45,5.13,1.81,8,7,7.2,16.1-2.39,32.24-4.54,48.35-6.88,2.71-.4,4.67-2,4.18-5.11s-3-3.75-5.67-3.35C301.55,222.58,283.58,225.34,265.7,228.05ZM279,240.26c-3.39-.17-4.86-.6-6.09-.23-3.12.94-7.09,1.69-6.25,6.23s4.1,3.93,7.73,3.08c5.35-1.25,10.88-1.78,16.32-2.64,9.86-1.55,19.71-3.13,29.57-4.67,3.06-.48,5.59-1.67,4.94-5.25s-3.59-3.76-6.53-3.38c-1.38.17-2.73.48-4.1.72Zm1.51,54.67c.58,9.34,5.2,12,20.07,12,9.35,0,13.31-3.44,13.72-12ZM70,342.85c-.31-6.85-3.51-7.62-20.32-5.14l.29,5.14Zm2,24.46c-5.15-8-12.26-4.08-17.8-4.95-3.59-.57-5.51,1.31-4.38,5.66C56.9,368.15,63.66,368.86,72.06,367.31Z"/><path class="cls-2" d="M299.29,320.23c1.82,4.28.82,8.78,1,13.18.38,9.69,5.76,15.84,15.42,16q30.41.51,60.81.09c10.94-.15,16.22-6.13,16.25-17.69.09-28.33,0-56.65,0-85,0-20.32,1.26-21.61,21.38-21.92,1.63,0,3.25-.16,6.32-.33-4.45-7.08-11.1-10.77-16.39-15-17-13.69-34-27.4-52-39.91-15.23-10.6-28.94-23.38-43.4-35.1-9.27-7.51-11.86-7.66-21-.21-8.74,7.14-16.87,15-25.66,22.1-3.49,2.8-6.79,7.5-12.64,5s-4.33-7.75-4.41-12.23c-.23-11.64-5.45-14.11-19.94-9.21-2.58,3.86-1.92,7.94-.84,12l0,12.44-.12,2.57c3.27,15.48-6.68,23.54-17.51,31-10.38,7.18-20.41,14.77-29.28,24,4.3,4.18,9.52,3,14.12,2.75,7.41-.34,10.31,3.65,10.33,9.85.13,33.83.2,67.66-.29,101.48-.15,10.62-9.52,18.59-20.61,18.69-16.35.14-32.71-.15-49.06-.25.4-5.42,4.48-4.59,8-4.74,14.64-.62,29.34,1.2,43.94-1.07,7.78-1.29,11.65-6.53,11.77-13.78.52-32.48.62-65,.9-97.47,0-5-2.62-6.91-7.27-7q-6.26-.06-12.49-.36c-3.18-.14-6.22-.94-7.52-4.22s.6-6.11,2.92-8.05c8.72-7.3,16.91-15.64,26.66-21.2,16.75-9.55,22.62-23.09,19.85-41.39a23.14,23.14,0,0,1,0-2.5c-.95-21.92,4-20.32,23.5-19.6,6.49.25,8.33,5.41,8.61,11.28.17,3.48-1.08,7.15,1.16,10.93,5-.71,8.09-4.43,11.55-7.36q10.8-9.15,21.37-18.57c8.65-7.73,15.68-8.28,24.94-1.07q47.26,36.81,94.35,73.85c6.11,4.79,12.19,9.64,18,14.77,2.41,2.13,4.67,4.79,3.06,8.72s-4.88,4.16-8.24,4.31c-4.16.19-8.34,0-12.49.31-5.84.48-8,4.21-7.46,9.66,3.12,32.36.89,64.78,1.08,97.16,0,8-10.43,17.28-18.86,17.4-21.66.3-43.33.46-65,.14-11.72-.18-19.41-8.49-19.3-20.36.05-5-2.08-10.5,1.71-15.17Z"/><path class="cls-3" d="M130.53,355.1c-4.09,6.9-10.74,2.19-16.61,3.68.87,6.24-2.67,7.9-8.49,8.51-10.14,1.06-19.91,5.34-31.06,3.65,3.1-10.25-2.72-19.51-1.56-29.59.7-6.07,3.51-8.19,8.16-7.5,9.1,1.34,18.2,2.31,27.37,2.8,2.91.16,5.17,2.3,5,4.63-.55,7.36,4,7.4,9,7,2.74-.21,5.5-.64,7.6,1.79C130.13,351.77,130.33,353.43,130.53,355.1Z"/><path class="cls-4" d="M283.85,274.51c2.06-4.91-.15-7.61-4.58-9.62s-8.52-4.45-12.89-6.77c4.5-5.15,10-2.72,14.58-3.9a347.84,347.84,0,0,1,34.39-6.68c3.52-.52,8.25-2.32,9.31,2.07,1,4.15-.16,10.41-4.6,11.9-7.58,2.53-10,7.6-10.92,14.49l-8,.06c-1.55-6.31,3-11.2,4.7-17.73l-17.24,2c4.21,5,6.1,10.19,5.05,16.17C290.2,276.67,286.69,277.28,283.85,274.51Z"/><path class="cls-3" d="M301.11,276.06l8-.06c8.39,2.67,5.78,9.53,5.48,15.21-.14,2.74-3.06,2.54-5.24,2.55H280.23c-1.35-7.16-1-13.57,3.62-19.25,2.84,2.77,6.35,2.16,9.77,2C296.29,279.44,298.63,276.51,301.11,276.06Z"/><path class="cls-4" d="M325.65,213.45a474.32,474.32,0,0,1-58.21,8.77c-1.69-5.71,0-8.15,4.91-8.89,14.4-2.13,28.75-4.53,43.15-6.59C320.17,206.07,325.3,205.51,325.65,213.45Z"/><path class="cls-4" d="M265.7,228.05c17.88-2.71,35.85-5.47,53.83-8.14,2.65-.4,5.15.12,5.67,3.35s-1.47,4.71-4.18,5.11c-16.11,2.34-32.25,4.49-48.35,6.88C267.51,236,266.15,233.18,265.7,228.05Z"/><path class="cls-4" d="M279,240.26l35.59-6.14c1.37-.24,2.72-.55,4.1-.72,2.94-.38,5.88-.17,6.53,3.38s-1.88,4.77-4.94,5.25c-9.86,1.54-19.71,3.12-29.57,4.67-5.44.86-11,1.39-16.32,2.64-3.63.85-6.89,1.49-7.73-3.08s3.13-5.29,6.25-6.23C274.11,239.66,275.58,240.09,279,240.26Z"/><path class="cls-3" d="M280.48,294.93h33.79c-.41,8.52-4.37,11.93-13.72,12C285.68,307,281.06,304.27,280.48,294.93Z"/><path class="cls-3" d="M70,342.85H50l-.29-5.14C66.52,335.23,69.72,336,70,342.85Z"/><path class="cls-3" d="M299.29,320.23l-2.76-.91c-8.06-.31-2.84-6.71-5.12-9.87,4.15-2.09,7.92-1.07,11.7-1.48C304.16,313.3,303.22,317.25,299.29,320.23Z"/><path class="cls-5" d="M130.53,355.1c-.2-1.67-.4-3.33-.59-5,3.07-2.63,6.8-1.73,10.27-1.69,14.51.17,29-.91,43.54.45-14.6,2.27-29.3.45-43.94,1.07-3.53.15-7.61-.68-8,4.74A1.42,1.42,0,0,1,130.53,355.1Z"/><path class="cls-3" d="M72.06,367.31c-8.4,1.55-15.16.84-22.18.71-1.13-4.35.79-6.23,4.38-5.66C59.8,363.23,66.91,359.29,72.06,367.31Z"/><path class="cls-6" d="M224.25,152.1c-1.08-4.11-1.74-8.19.84-12Z"/><path class="cls-6" d="M224.1,167.11l.12-2.57A1.67,1.67,0,0,1,224.1,167.11Z"/><path class="cls-1" d="M301.11,276.06c-2.48.45-4.82,3.38-7.49.41,1.05-6-.84-11.2-5.05-16.17l17.24-2C304.14,264.86,299.56,269.75,301.11,276.06Z"/></svg>